<?xml version="1.0" standalone="no"?>
<!DOCTYPE svg PUBLIC "-//W3C//DTD SVG 20010904//EN"
 "http://www.w3.org/TR/2001/REC-SVG-20010904/DTD/svg10.dtd">
<svg version="1.0" xmlns="http://www.w3.org/2000/svg"
 width="394.000000pt" height="202.000000pt" viewBox="0 0 394.000000 202.000000"
 preserveAspectRatio="xMidYMid meet">

<g transform="translate(0.000000,202.000000) scale(0.100000,-0.100000)"
fill="#000000" stroke="none">
<path d="M1810 2004 c-69 -19 -86 -34 -71 -63 6 -11 78 -119 159 -239 81 -120
152 -226 157 -235 48 -79 202 -306 208 -306 4 -1 41 50 81 112 104 160 199
255 306 306 115 55 195 74 310 74 147 0 287 -45 402 -129 65 -49 158 -160 202
-244 87 -164 89 -426 5 -592 -86 -170 -264 -318 -436 -363 -76 -20 -270 -20
-347 0 -165 43 -336 181 -437 351 -13 23 -50 79 -82 125 -31 46 -155 230 -274
409 -119 179 -239 353 -266 388 -137 174 -367 305 -602 343 -219 35 -492 -24
-671 -146 -156 -106 -254 -213 -333 -363 -89 -171 -118 -312 -108 -517 9 -177
55 -313 163 -482 83 -130 242 -262 409 -339 222 -103 495 -113 722 -28 93 35
230 111 278 154 79 70 70 70 126 7 60 -68 127 -97 222 -97 64 0 157 26 157 44
0 10 -7 22 -107 171 -33 50 -104 155 -156 235 -158 238 -146 223 -161 210 -8
-6 -29 -36 -47 -66 -104 -173 -206 -277 -340 -348 -96 -51 -164 -66 -304 -66
-137 0 -193 13 -295 66 -141 74 -241 176 -311 319 -45 92 -59 161 -59 290 0
177 47 300 165 438 226 265 622 308 907 100 51 -37 165 -164 188 -210 13 -26
44 -71 225 -335 33 -48 74 -110 90 -137 38 -63 265 -398 316 -468 22 -29 77
-86 123 -126 97 -84 262 -173 386 -207 451 -124 934 108 1136 544 46 101 72
203 80 324 20 294 -76 554 -280 757 -177 175 -387 269 -632 282 -138 7 -241
-7 -373 -52 -115 -39 -198 -84 -295 -163 l-68 -56 -29 34 c-15 19 -34 46 -41
60 -27 55 -100 150 -137 179 -78 62 -168 81 -261 55z"/>
</g>
</svg>
